<mxfile host="app.diagrams.net" modified="2023-10-16T12:26:57.152Z" agent="Mozilla/5.0 (X11; Ubuntu; Linux x86_64; rv:109.0) Gecko/20100101 Firefox/118.0" version="22.0.4" etag="mh_L7ZqqBJXDCtX8HtMs" type="github">
  <diagram name="Page-1" id="agupQrrcnB1npstT1Mtp">
    <mxGraphModel>
      <root>
        <mxCell id="0" />
        <mxCell id="1" parent="0" />
      </root>
    </mxGraphModel>
  </diagram>
</mxfile>
